<?xml version="1.0" encoding="UTF-8" standalone="no"?>
<svg
   viewBox="0 0 128 128"
   version="1.1"
   id="svg1236"
   sodipodi:docname="csharp.svg"
   inkscape:version="1.2.2 (b0a8486541, 2022-12-01)"
   xmlns:inkscape="http://www.inkscape.org/namespaces/inkscape"
   xmlns:sodipodi="http://sodipodi.sourceforge.net/DTD/sodipodi-0.dtd"
   xmlns="http://www.w3.org/2000/svg"
   xmlns:svg="http://www.w3.org/2000/svg">
  <defs
     id="defs1240" />
  <sodipodi:namedview
     id="namedview1238"
     pagecolor="#505050"
     bordercolor="#ffffff"
     borderopacity="1"
     inkscape:showpageshadow="0"
     inkscape:pageopacity="0"
     inkscape:pagecheckerboard="1"
     inkscape:deskcolor="#505050"
     showgrid="false"
     showguides="false"
     inkscape:zoom="1.84375"
     inkscape:cx="-30.644068"
     inkscape:cy="64.271186"
     inkscape:window-width="2560"
     inkscape:window-height="1508"
     inkscape:window-x="0"
     inkscape:window-y="1080"
     inkscape:window-maximized="1"
     inkscape:current-layer="layer2" />
  <g
     inkscape:groupmode="layer"
     id="layer2"
     inkscape:label="Layer 1">
    <g
       id="g1363"
       transform="matrix(0.95190419,0,0,0.95190419,18.598454,11.992715)">
      <path
         fill="#9b4f96"
         d="M 93.18083,25.195752 50.48032,0.618843 C 49.77306,0.176812 48.80059,0 47.7397,0 46.67882,0 45.70635,0.265218 44.99909,0.618843 L 2.563799,25.284158 C 1.060882,26.168219 0,28.378373 0,30.058089 V 79.30031 c 0,0.97247 0.176814,2.12175 0.884069,3.09422 L 95.30259,27.582718 c -0.53044,-1.060874 -1.32611,-1.85653 -2.12176,-2.386966 z"
         id="path1230"
         style="stroke-width:0.884065" />
      <path
         fill="#68217a"
         d="m 0.618848,82.30612 c 0.442034,0.70725 1.060882,1.32609 1.679731,1.67972 l 42.612101,24.66531 c 0.70726,0.44203 1.67973,0.61885 2.74062,0.61885 1.06088,0 2.03335,-0.26522 2.74061,-0.61885 L 92.8272,83.98584 c 1.50292,-0.88406 2.5638,-3.09422 2.5638,-4.77393 V 29.969684 c 0,-0.795656 -0.0884,-1.679717 -0.53044,-2.475373 z"
         id="path1232"
         style="stroke-width:0.884065" />
      <path
         fill="#ffffff"
         d="M 66.57037,65.33214 C 62.85728,71.8742 55.78473,76.2945 47.7397,76.2945 c -11.93492,0 -21.65968,-9.72467 -21.65968,-21.6595 0,-11.934831 9.72476,-21.659508 21.65968,-21.659508 8.04503,0 15.11758,4.420308 18.83067,11.050769 L 78.06326,37.3958 C 72.05159,26.875469 60.73551,19.71457 47.7397,19.71457 c -19.27269,0 -34.92071,15.647888 -34.92071,34.92043 0,19.27254 15.64802,34.92042 34.92071,34.92042 12.90741,0 24.22348,-7.07249 30.23515,-17.50441 z m 10.3436,-8.75221 0.79566,-3.80146 h -3.71309 v -4.15509 h 4.50875 l 1.06088,-5.481181 h 4.33194 l -1.06088,5.392771 h 3.35946 l 1.06088,-5.392771 h 4.24352 l -1.06087,5.392771 h 2.12176 v 4.15509 h -2.91742 l -0.79567,3.80147 h 3.71309 v 4.15509 h -4.50875 l -1.06089,5.30437 h -4.33193 l 1.06088,-5.30437 h -3.35945 l -1.06089,5.30437 h -4.24353 l 1.06089,-5.30437 h -2.12177 v -4.15509 h 2.91743 z m 4.24353,0 h 3.35945 l 0.79567,-3.80146 h -3.35946 z"
         id="path1234"
         style="stroke-width:0.884065" />
    </g>
  </g>
</svg>
