<?xml version="1.0" encoding="UTF-8" standalone="no"?>
<svg
   width="200"
   height="200"
   viewBox="0 0 44 50"
   version="1.1"
   id="svg40"
   sodipodi:docname="nodejs.svg"
   inkscape:version="1.2.2 (b0a8486541, 2022-12-01)"
   xmlns:inkscape="http://www.inkscape.org/namespaces/inkscape"
   xmlns:sodipodi="http://sodipodi.sourceforge.net/DTD/sodipodi-0.dtd"
   xmlns="http://www.w3.org/2000/svg"
   xmlns:svg="http://www.w3.org/2000/svg">
  <sodipodi:namedview
     id="namedview42"
     pagecolor="#505050"
     bordercolor="#ffffff"
     borderopacity="1"
     inkscape:showpageshadow="0"
     inkscape:pageopacity="0"
     inkscape:pagecheckerboard="1"
     inkscape:deskcolor="#505050"
     showgrid="false"
     inkscape:zoom="1.18"
     inkscape:cx="-35.59322"
     inkscape:cy="100.42373"
     inkscape:window-width="2560"
     inkscape:window-height="1508"
     inkscape:window-x="0"
     inkscape:window-y="1080"
     inkscape:window-maximized="1"
     inkscape:current-layer="layer1" />
  <defs
     id="defs32">
    <clipPath
       id="hexClip">
      <path
         d="M22.8725 0.4166C22.136 0 21.2616 0 20.5253 0.4166L1.1505 11.6694C0.4142 12.0862 0 12.8733 0 13.707V36.2584C0 37.0921 0.4602 37.8791 1.1505 38.296L20.5253 49.5487C21.2616 49.9653 22.136 49.9653 22.8725 49.5487L42.2471 38.296C42.9836 37.8791 43.3976 37.0921 43.3976 36.2584V13.707C43.3976 12.8733 42.9375 12.0862 42.2471 11.6694L22.8725 0.4166Z"
         id="path2" />
    </clipPath>
    <linearGradient
       id="main"
       x1="30.33"
       y1="8.56"
       x2="14.9"
       y2="44.7"
       gradientUnits="userSpaceOnUse">
      <stop
         stop-color="#3F8B3D"
         id="stop5" />
      <stop
         offset="0.64"
         stop-color="#3F873F"
         id="stop7" />
      <stop
         offset="0.93"
         stop-color="#3DA92E"
         id="stop9" />
      <stop
         offset="1"
         stop-color="#3DAE2B"
         id="stop11" />
    </linearGradient>
    <linearGradient
       id="r1"
       x1="18.8"
       y1="26.8"
       x2="68"
       y2="0.4"
       gradientUnits="userSpaceOnUse">
      <stop
         offset="0.14"
         stop-color="#3F873F"
         id="stop14" />
      <stop
         offset="0.4"
         stop-color="#52A044"
         id="stop16" />
      <stop
         offset="0.71"
         stop-color="#64B749"
         id="stop18" />
      <stop
         offset="0.91"
         stop-color="#6ABF4B"
         id="stop20" />
    </linearGradient>
    <linearGradient
       id="r2"
       x1="0.25"
       y1="24.5"
       x2="44"
       y2="24.5"
       gradientUnits="userSpaceOnUse">
      <stop
         offset="0.09"
         stop-color="#6ABF4B"
         id="stop23" />
      <stop
         offset="0.29"
         stop-color="#64B749"
         id="stop25" />
      <stop
         offset="0.6"
         stop-color="#52A044"
         id="stop27" />
      <stop
         offset="0.86"
         stop-color="#3F873F"
         id="stop29" />
    </linearGradient>
  </defs>
  <g
     inkscape:groupmode="layer"
     id="layer1"
     inkscape:label="Layer 1"
     transform="matrix(0.80636578,0,0,0.80636578,4.2016303,4.837496)">
    <g
       id="g291">
      <path
         fill="url(#main)"
         d="M 22.8725,0.4166 C 22.136,0 21.2616,0 20.5253,0.4166 L 1.1505,11.6694 C 0.4142,12.0862 0,12.8733 0,13.707 v 22.5514 c 0,0.8337 0.4602,1.6207 1.1505,2.0376 l 19.3748,11.2527 c 0.7363,0.4166 1.6107,0.4166 2.3472,0 L 42.2471,38.296 c 0.7365,-0.4169 1.1505,-1.2039 1.1505,-2.0376 V 13.707 c 0,-0.8337 -0.4601,-1.6208 -1.1505,-2.0376 z"
         id="path34"
         style="fill:url(#main)" />
      <polygon
         fill="url(#r1)"
         clip-path="url(#hexClip)"
         points="43.20532,11.948247 21.698901,51.072715 0.152778,38.055107 21.698901,-1.046618 "
         id="polygon36"
         style="fill:url(#r1)" />
      <polygon
         fill="url(#r2)"
         clip-path="url(#hexClip)"
         points="0.152778,11.948247 21.698901,51.072715 43.20532,38.055107 21.698901,-1.046618 "
         id="polygon38"
         style="fill:url(#r2)" />
    </g>
  </g>
</svg>
