<?xml version="1.0" encoding="UTF-8" standalone="no"?>
<!--Generator: Xara Xtreme (www.xara.com), SVG filter version: 1.0.0.13-->

<svg
   stroke-width="0.501"
   stroke-linejoin="bevel"
   fill-rule="evenodd"
   version="1.1"
   overflow="visible"
   width="2048"
   height="2048"
   viewBox="0 0 1536 1536"
   id="svg161"
   sodipodi:docname="python.svg"
   inkscape:version="1.2.2 (b0a8486541, 2022-12-01)"
   xmlns:inkscape="http://www.inkscape.org/namespaces/inkscape"
   xmlns:sodipodi="http://sodipodi.sourceforge.net/DTD/sodipodi-0.dtd"
   xmlns="http://www.w3.org/2000/svg"
   xmlns:svg="http://www.w3.org/2000/svg">
  <sodipodi:namedview
     id="namedview163"
     pagecolor="#505050"
     bordercolor="#ffffff"
     borderopacity="1"
     inkscape:showpageshadow="0"
     inkscape:pageopacity="0"
     inkscape:pagecheckerboard="1"
     inkscape:deskcolor="#505050"
     inkscape:document-units="px"
     showgrid="false"
     inkscape:zoom="0.11352994"
     inkscape:cx="1202.326"
     inkscape:cy="1043.7775"
     inkscape:window-width="2560"
     inkscape:window-height="1508"
     inkscape:window-x="0"
     inkscape:window-y="1080"
     inkscape:window-maximized="1"
     inkscape:current-layer="layer1" />
  <defs
     id="defs94">
    <marker
       id="DefaultArrow2"
       markerUnits="strokeWidth"
       viewBox="0 0 1 1"
       markerWidth="1"
       markerHeight="1"
       overflow="visible"
       orient="auto">
      <!-- REF_ARROW_STRAIGHT (-2) -->
      <g
         transform="scale(0.00925926)"
         id="g4">
        <!-- 1/108 -->
        <path
           d="M -9,54 V -54 L 117,0 Z"
           id="path2" />
      </g>
    </marker>
    <marker
       id="DefaultArrow3"
       markerUnits="strokeWidth"
       viewBox="0 0 1 1"
       markerWidth="1"
       markerHeight="1"
       overflow="visible"
       orient="auto">
      <!-- REF_ARROW_ANGLED -->
      <g
         transform="scale(0.00925926)"
         id="g9">
        <path
           d="M -27,54 -9,0 -27,-54 135,0 Z"
           id="path7" />
      </g>
    </marker>
    <marker
       id="DefaultArrow4"
       markerUnits="strokeWidth"
       viewBox="0 0 1 1"
       markerWidth="1"
       markerHeight="1"
       overflow="visible"
       orient="auto">
      <!-- REF_ARROW_ROUNDED -->
      <g
         transform="scale(0.00925926)"
         id="g14">
        <path
           d="m -9,0 v -45 c 0,-6.708 11.808,-11.58 18,-9 l 108,45 c 3.916,1.631 9,4.758 9,9 0,4.242 -5.084,7.369 -9,9 L 9,54 C 2.808,56.58 -9,51.708 -9,45 Z"
           id="path12" />
      </g>
    </marker>
    <marker
       id="DefaultArrow5"
       markerUnits="strokeWidth"
       viewBox="0 0 1 1"
       markerWidth="1"
       markerHeight="1"
       overflow="visible"
       orient="auto">
      <!-- REF_ARROW_SPOT -->
      <g
         transform="scale(0.00925926)"
         id="g19">
        <path
           d="M -54,0 C -54,29.807 -29.807,54 0,54 29.807,54 54,29.807 54,0 54,-29.807 29.807,-54 0,-54 -29.807,-54 -54,-29.807 -54,0 Z"
           id="path17" />
      </g>
    </marker>
    <marker
       id="DefaultArrow6"
       markerUnits="strokeWidth"
       viewBox="0 0 1 1"
       markerWidth="1"
       markerHeight="1"
       overflow="visible"
       orient="auto">
      <!-- REF_ARROW_DIAMOND -->
      <g
         transform="scale(0.00925926)"
         id="g24">
        <path
           d="M -63,0 0,63 63,0 0,-63 Z"
           id="path22" />
      </g>
    </marker>
    <marker
       id="DefaultArrow7"
       markerUnits="strokeWidth"
       viewBox="0 0 1 1"
       markerWidth="1"
       markerHeight="1"
       overflow="visible"
       orient="auto">
      <!-- REF_ARROW_FEATHER -->
      <g
         transform="scale(0.00925926)"
         id="g29">
        <path
           d="m 18,-54 h 90 L 63,0 108,54 H 18 L -36,0 Z"
           id="path27" />
      </g>
    </marker>
    <marker
       id="DefaultArrow8"
       markerUnits="strokeWidth"
       viewBox="0 0 1 1"
       markerWidth="1"
       markerHeight="1"
       overflow="visible"
       orient="auto">
      <!-- REF_ARROW_FEATHER2 -->
      <g
         transform="scale(0.00925926)"
         id="g34">
        <path
           d="m -36,0 54,-54 h 36 l -36,36 h 9 l 36,-36 h 36 l -36,36 h 9 l 36,-36 h 36 L 90,0 144,54 H 108 L 72,18 H 63 L 99,54 H 63 L 27,18 H 18 L 54,54 H 18 Z"
           id="path32" />
      </g>
    </marker>
    <marker
       id="DefaultArrow9"
       markerUnits="strokeWidth"
       viewBox="0 0 1 1"
       markerWidth="1"
       markerHeight="1"
       overflow="visible"
       orient="auto">
      <!-- REF_ARROW_HOLLOWDIAMOND -->
      <g
         transform="scale(0.00925926)"
         id="g39">
        <path
           d="M 0,45 -45,0 0,-45 45,0 Z M 0,63 -63,0 0,-63 63,0 Z"
           id="path37" />
      </g>
    </marker>
    <filter
       id="StainedFilter">
      <feBlend
         mode="multiply"
         in2="BackgroundImage"
         in="SourceGraphic"
         result="blend"
         id="feBlend42" />
      <feComposite
         in="blend"
         in2="SourceAlpha"
         operator="in"
         result="comp"
         id="feComposite44" />
    </filter>
    <filter
       id="BleachFilter">
      <feBlend
         mode="screen"
         in2="BackgroundImage"
         in="SourceGraphic"
         result="blend"
         id="feBlend47" />
      <feComposite
         in="blend"
         in2="SourceAlpha"
         operator="in"
         result="comp"
         id="feComposite49" />
    </filter>
    <filter
       id="InvertTransparencyBitmapFilter">
      <feComponentTransfer
         id="feComponentTransfer58">
        <feFuncR
           type="gamma"
           amplitude="1.055"
           exponent=".416666666"
           offset="-0.055"
           id="feFuncR52" />
        <feFuncG
           type="gamma"
           amplitude="1.055"
           exponent=".416666666"
           offset="-0.055"
           id="feFuncG54" />
        <feFuncB
           type="gamma"
           amplitude="1.055"
           exponent=".416666666"
           offset="-0.055"
           id="feFuncB56" />
      </feComponentTransfer>
      <feComponentTransfer
         id="feComponentTransfer68">
        <feFuncR
           type="linear"
           slope="-1"
           intercept="1"
           id="feFuncR60" />
        <feFuncG
           type="linear"
           slope="-1"
           intercept="1"
           id="feFuncG62" />
        <feFuncB
           type="linear"
           slope="-1"
           intercept="1"
           id="feFuncB64" />
        <feFuncA
           type="linear"
           slope="1"
           intercept="0"
           id="feFuncA66" />
      </feComponentTransfer>
      <feComponentTransfer
         id="feComponentTransfer76">
        <feFuncR
           type="gamma"
           amplitude="1"
           exponent="2.4"
           offset="0"
           id="feFuncR70" />
        <feFuncG
           type="gamma"
           amplitude="1"
           exponent="2.4"
           offset="0"
           id="feFuncG72" />
        <feFuncB
           type="gamma"
           amplitude="1"
           exponent="2.4"
           offset="0"
           id="feFuncB74" />
      </feComponentTransfer>
    </filter>
    <linearGradient
       id="LinearGradient"
       gradientUnits="userSpaceOnUse"
       x1="0"
       y1="0"
       x2="673.55902"
       y2="0"
       gradientTransform="rotate(-40.9773,1931.5853,302.01816)">
      <stop
         offset="0"
         stop-color="#5a9fd4"
         id="stop79" />
      <stop
         offset="1"
         stop-color="#306998"
         id="stop81" />
    </linearGradient>
    <linearGradient
       id="LinearGradient_1"
       gradientUnits="userSpaceOnUse"
       x1="0"
       y1="0"
       x2="316.62201"
       y2="0"
       gradientTransform="rotate(124.996,289.10729,488.52049)">
      <stop
         offset="0"
         stop-color="#ffd43b"
         id="stop84" />
      <stop
         offset="1"
         stop-color="#ffe873"
         id="stop86" />
    </linearGradient>
    <linearGradient
       id="LinearGradient_2"
       gradientUnits="userSpaceOnUse"
       x1="0"
       y1="0"
       x2="742.276"
       y2="0"
       gradientTransform="matrix(0,-1,1,-1.52588e-4,-0.009,0.017)">
      <stop
         offset="0"
         stop-color="#4c8cbf"
         id="stop89" />
      <stop
         offset="1"
         stop-color="#306898"
         id="stop91" />
    </linearGradient>
  </defs>
  <g
     inkscape:groupmode="layer"
     id="layer1"
     inkscape:label="Layer 1"
     transform="translate(31.8807,83.673965)">
    <g
       id="Group_2"
       fill-rule="nonzero"
       transform="matrix(0.99999998,0,0,-0.99999998,0,1559.06)">
      <path
         d="m 730.634,1340.65 c -38.008,-0.17 -74.307,-3.41 -106.245,-9.06 -94.083,-16.62 -111.159,-51.41 -111.159,-115.57 v -84.71 h 222.326 v -28.25 H 513.23 429.791 c -64.609,0 -121.198,-38.83 -138.89,-112.713 -20.416,-84.676 -21.314,-137.519 0,-225.942 15.795,-65.809 53.539,-112.697 118.154,-112.697 h 76.444 v 101.547 c 0,73.391 63.488,138.115 138.89,138.115 h 222.06 c 61.832,0 111.168,50.895 111.168,112.98 v 211.67 c 0,60.25 -50.832,105.51 -111.168,115.57 -38.196,6.36 -77.805,9.24 -115.815,9.06 z M 610.39,1272.51 c 22.968,0 41.72,-19.06 41.72,-42.5 0,-23.34 -18.752,-42.23 -41.72,-42.23 -23.049,0 -41.71,18.89 -41.71,42.23 0,23.44 18.661,42.5 41.71,42.5 z"
         marker-start="none"
         marker-end="none"
         fill="url(#LinearGradient)"
         id="path96"
         style="fill:url(#LinearGradient)" />
      <path
         d="m 985.349,1103.06 v -98.71 c 0,-76.538 -64.902,-140.967 -138.9,-140.967 h -222.06 c -60.836,0 -111.159,-52.06 -111.159,-112.966 V 538.741 c 0,-60.266 52.379,-95.694 111.159,-112.992 70.372,-20.673 137.865,-24.42 222.06,0 55.977,16.212 111.168,48.82 111.168,112.992 v 84.721 H 735.556 v 28.246 h 222.061 111.173 c 64.6,0 88.69,45.056 111.16,112.697 23.2,69.638 22.23,136.611 0,225.942 -15.97,64.333 -46.46,112.713 -111.16,112.713 z M 860.446,566.971 c 23.051,0 41.721,-18.886 41.721,-42.238 0,-23.432 -18.67,-42.494 -41.721,-42.494 -22.967,0 -41.708,19.062 -41.708,42.494 0,23.352 18.741,42.238 41.708,42.238 z"
         marker-start="none"
         marker-end="none"
         fill="url(#LinearGradient_1)"
         id="path98"
         style="fill:url(#LinearGradient_1)" />
    </g>
  </g>
</svg>
